<?xml version="1.0" standalone="no"?><!DOCTYPE svg PUBLIC "-//W3C//DTD SVG 1.1//EN" "http://www.w3.org/Graphics/SVG/1.1/DTD/svg11.dtd"><svg class="icon" width="64px" height="64.00px" viewBox="0 0 1024 1024" version="1.1" xmlns="http://www.w3.org/2000/svg"><path d="M257.1776 368.64l8.192-22.9376S163.84 381.7472 103.1168 416.1536c0 0 93.44 347.4432 403.2 481.8432 195.072-95.0272 350.72-270.4384 404.8384-478.5664 0-14.7456-231.1168-109.824-299.9296-101.632l-11.4688 22.9376s109.7728 9.8816 270.3872 91.8016c0 3.2768-39.3216 124.5696-98.304 191.744 0 1.6384-68.864-204.8512-203.264-249.088-1.6384 0 26.2656-129.536 103.2704-168.8064 14.7456-8.192 77.056-49.152 132.7616-75.4176 1.6384-1.6384-16.384-34.4064-173.7216 24.576 1.6384-1.6384-123.7504 3.2768-123.7504 3.2768s-150.016-6.5536-194.2016 109.824c-44.288 116.3776-72.1408 344.1664-72.1408 344.1664S134.2976 465.408 144.0768 434.176c9.8816-31.1296 113.152-65.536 113.152-65.536z" fill="#000000" /><path d="M316.2112 322.7136l-67.2256 319.5904 103.2704 113.152s-14.7456-234.3936 88.4736-288.512c103.2704-54.0672 90.1632-70.4512 90.1632-70.4512s-145.8688 11.4688-165.5296-6.5536c-19.6608-18.0224-45.8752-32.768-49.152-67.2256z" fill="#B7B7B7" /><path d="M314.5728 362.0864L255.488 634.112l8.192 11.52s16.384-65.536 29.4912-90.1632c13.1584-24.576 39.3728-63.8976 42.6496-129.4848V373.5552l-21.2992-11.4688z" fill="#A2A2A2" /><path d="M489.9328 389.9392s-75.4176 6.5536-68.864-36.0448c6.5536-42.6496-3.2768-111.4624-73.728-77.056-32.768 23.04-21.2992 100.7104 44.2368 113.4592 65.536 12.7488 98.304-0.3584 98.304-0.3584z m73.728-122.4192s8.6528-16.1792 21.2992-33.28c18.0736-24.32 142.592-77.056 175.4112-81.92-32.768 21.248-91.8016 47.5136-109.824 62.2592-18.0224 14.7456-54.0672 52.9408-70.5024 52.9408h-16.384z" fill="#FAB03B" /><path d="M537.3952 395.8784s-14.7456 50.2272-63.8976 57.344c0 0-114.688 79.3088-54.0672 338.2272 6.5536 21.3504 18.0224 52.48 68.8128 42.6496 50.7904-9.8304 163.8912-70.8608 232.7552-218.1632 1.6384-3.072-49.152 36.2496-49.152 36.2496s34.4064-68.864 21.248-113.152c-13.1072-44.1856-101.5808-151.9616-155.648-143.1552z" fill="#FFFFFF" /><path d="M686.592 602.9824s-19.6608-73.728-77.0048-163.84c19.6608 14.6944 77.0048 93.3888 77.0048 93.3888v70.4512z" fill="#D6D6D6" /><path d="M488.2944 201.472s-16.384 19.6608 0 14.7456c16.384-4.9152 19.6608-14.7456 19.6608-14.7456h22.9376s-22.9376 44.2368-57.344 34.4064c-34.4576-9.8304-4.9152-31.1296 0-34.4064 4.9152-3.2768 14.7456 0 14.7456 0z" fill="#FFFFFF" /></svg>