<?xml version="1.0" standalone="no"?><!DOCTYPE svg PUBLIC "-//W3C//DTD SVG 1.1//EN" "http://www.w3.org/Graphics/SVG/1.1/DTD/svg11.dtd"><svg class="icon" width="64px" height="63.94px" viewBox="0 0 1025 1024" version="1.1" xmlns="http://www.w3.org/2000/svg"><path fill="#2c2c2c" d="M864.711 93C952.684 93 1024 164.172 1024 251.968c0 51.145-24.202 96.649-61.8 125.727 38.799 64.432 59.8 137.145 59.8 212.468 0 121.598-47.128 221.274-137.333 288.637-88.745 66.272-215.718 98.767-373.41 96.041-158.774-2.744-284.203-35.905-371.553-99.69C48.954 808.886 2 711.482 2 590.164c0-74.835 20.728-148.101 58.79-213.256C23.773 347.805 0 302.657 0 251.967 0 164.173 71.316 93 159.289 93c59.931 0 112.132 33.031 139.321 81.847 65.597-26.217 138.174-39.431 214.37-37.695 74.86 1.706 145.894 16.266 210.063 42.075C749.49 128.02 803.003 93 864.71 93z m-353.69 130.13c-119.384-2.72-226.867 37.569-305.489 109.95C130.63 402.04 88 495.01 88 590.164c0 94.499 34.404 165.869 102.42 215.535 71.171 51.97 179.815 80.693 322.323 83.156 140.093 2.422 248.71-25.376 320.466-78.961C901.061 759.223 936 685.328 936 590.163c0-94.455-42.049-184.35-117.207-252.133-78.127-70.462-186.327-112.133-307.773-114.9z m72.803 342.083c15.94 4.522 25.195 21.11 20.673 37.049-9.073 31.982-43.21 54.19-83.602 54.19-39.278 0-70.27-20.7-82.56-51.15-6.2-15.365 1.227-32.847 16.592-39.048 15.21-6.139 32.497 1.08 38.858 16.134l0.19 0.458c3.09 7.656 11.997 13.606 26.92 13.606 8.601 0 15.618-2.008 20.626-5.266 1.869-1.215 3.313-2.522 4.299-3.774 0.327-0.417 0.563-0.77 0.72-1.038l0.114-0.208 0.078-0.164c0.02-0.047 0.034-0.085 0.043-0.116 4.522-15.94 21.11-25.195 37.049-20.673z m190.83-195.457c59.436 47.913 79.473 131.226 50.29 174.133-29.186 42.91-103.753 42.605-166.551-0.682-62.8-43.282-84.012-129.452-54.827-172.36 29.184-42.908 99.38-58.893 171.087-1.09z m-352.617 1.09c29.184 42.91 7.972 129.079-54.826 172.361-62.798 43.287-137.365 43.591-166.55 0.682-29.186-42.907-9.15-126.22 50.288-174.133 71.706-57.802 141.903-41.817 171.088 1.09z"  /></svg>