<?xml version="1.0" standalone="no"?><!DOCTYPE svg PUBLIC "-//W3C//DTD SVG 1.1//EN" "http://www.w3.org/Graphics/SVG/1.1/DTD/svg11.dtd"><svg class="icon" width="64px" height="64.00px" viewBox="0 0 1024 1024" version="1.1" xmlns="http://www.w3.org/2000/svg"><path fill="#2c2c2c" d="M801.565 545.956l-448.919-258.287c-17.774-10.369-29.528-29.346-29.528-51.068 0-6.215 0.962-12.205 2.746-17.83l-101.535 58.876c-35.753 19.966-59.529 57.572-59.529 100.732 0 42.395 22.943 79.432 57.090 99.37l449.465 258.563c17.778 10.381 29.532 29.368 29.532 51.1 0 6.202-0.957 12.182-2.733 17.798l101.517-58.877c35.753-19.961 59.532-57.565 59.532-100.722 0-42.394-22.944-79.428-57.093-99.362z"  /><path fill="#2c2c2c" d="M663.52 749.934l-165.407-95.17-210.762 121.498c-34.772 20.21-57.778 57.287-57.778 99.737 0 63.497 51.474 114.972 114.972 114.972 20.844 0 40.394-5.547 57.251-15.246l263.222-151.766c12.216-7.768 20.203-21.233 20.203-36.563 0-15.945-8.641-29.871-21.496-37.352M360.48 274.066l165.39 95.17 210.779-121.498c34.772-20.21 57.778-57.287 57.778-99.737 0-63.497-51.474-114.972-114.972-114.972-20.844 0-40.394 5.547-57.251 15.246l-263.222 151.766c-12.216 7.768-20.203 21.233-20.203 36.563 0 15.945 8.641 29.871 21.496 37.352z"  /></svg>