<?xml version="1.0" standalone="no"?><!DOCTYPE svg PUBLIC "-//W3C//DTD SVG 1.1//EN" "http://www.w3.org/Graphics/SVG/1.1/DTD/svg11.dtd"><svg class="icon" width="64px" height="49.80px" viewBox="0 0 1316 1024" version="1.1" xmlns="http://www.w3.org/2000/svg"><path fill="#13227a" d="M734.867163 633.709714c140.873143-91.7504 262.787657-192.424229 348.9792-286.837028a456.967314 456.967314 0 0 0-125.952-166.619429 414.398171 414.398171 0 0 0-57.226971-40.5504 435.989943 435.989943 0 0 0-225.601829-62.610286c-248.919771 0-450.56 207.842743-450.56 464.164572 0 113.166629 39.350857 217.175771 104.799086 297.837714 124.606171-43.593143 268.288-116.209371 405.562514-205.385143z m-28.291657-483.445028c1.901714-0.438857 3.627886 0 5.5296 0V150.089143s1.082514 0 2.018743 0.146286c1.345829 0.117029 2.837943 0 4.183772 0.292571 16.296229 1.2288 65.448229 7.050971 120.129828 33.440914 45.114514 21.796571 100.352 61.2352 134.816914 109.275429 0.672914 0.8192 0.936229 1.930971 1.462858 2.925714a27.677257 27.677257 0 0 1 2.720914 6.641372c0.146286 0.585143 0.4096 0.848457 0.526628 1.404342v1.111772a27.179886 27.179886 0 0 1 0 8.747886c-0.117029 1.111771-0.380343 2.077257-0.672914 3.189028-0.789943 2.633143-1.755429 4.856686-2.691657 6.670629l-1.199543 2.223543c-1.345829 2.048-2.428343 3.335314-2.428343 3.335314l-1.872457 1.2288c-3.510857 3.218286-7.548343 5.851429-12.405028 6.816914a27.150629 27.150629 0 0 1-28.291658-12.229486l-0.672914-0.672914c-18.314971-22.791314-52.253257-68.754286-127.151543-95.963428-74.898286-27.209143-89.146514-21.796571-89.146514-21.796572v-0.702171a27.413943 27.413943 0 0 1-26.389943-22.352457 28.2624 28.2624 0 0 1 21.533257-33.5872z m-101.024914-0.438857a26.916571 26.916571 0 0 1 36.6592 12.522057 28.554971 28.554971 0 0 1-12.141714 37.741714 26.916571 26.916571 0 0 1-36.629943-12.4928 28.554971 28.554971 0 0 1 12.112457-37.741714z m205.531429 608.4608c119.076571-77.765486 226.684343-161.792 313.431771-245.087086 0.672914 9.303771 1.082514 18.900114 1.082514 28.086857 0 256.585143-201.757257 464.427886-450.267428 464.427886a438.857143 438.857143 0 0 1-218.199772-57.899886c113.693257-47.630629 236.397714-112.874057 353.952915-189.527771zM1293.415278 67.7888c33.938286 43.593143 47.689143 129.550629-80.2816 291.0208-90.901943 114.688-232.067657 239.908571-397.312 352.694857-147.368229 100.527543-302.811429 182.710857-437.482057 231.306972-82.037029 29.578971-153.014857 45.699657-211.178058 47.893942-4.739657 0.146286-9.157486 0.292571-13.604571 0.292572-60.767086 0-104.535771-16.676571-130.2528-49.5616-20.333714-26.243657-37.741714-74.313143-4.7104-154.4192 21.942857-53.599086 63.019886-114.688 122.002286-181.189486a32.943543 32.943543 0 0 1 47.572114-2.223543c13.750857 12.9024 14.687086 34.845257 2.135771 49.005715-52.926171 59.860114-90.901943 115.682743-109.7728 161.499428-10.883657 26.799543-20.714057 63.195429-4.681142 83.704686 22.615771 28.906057 109.626514 40.842971 280.283428-20.538514 129.550629-46.811429 279.727543-126.215314 422.5024-223.700115 159.890286-108.982857 295.643429-229.229714 382.507886-338.651428 88.502857-111.908571 99.269486-178.556343 79.872-203.688229-12.375771-15.535543-40.813714-23.990857-80.2816-23.610514-45.524114 0.585143-105.442743 12.639086-173.319314 35.137828a33.440914 33.440914 0 0 1-42.422858-22.352457c-5.792914-18.344229 4.037486-37.917257 21.650286-43.739428 115.185371-38.180571 265.216-67.203657 326.802286 11.117714z"  /></svg>